<svg width="141" height="144" viewBox="0 0 141 144" fill="none" xmlns="http://www.w3.org/2000/svg">
<path d="M58.1674 32.1999H53.6057V24.5797C53.6057 20.401 55.1662 16.3723 57.9793 13.2821C60.7924 10.1963 64.6529 8.27622 68.8041 7.89473V1.72313C68.8041 0.883114 69.4881 0.197403 70.326 0.197403C71.1639 0.197403 71.848 0.883136 71.848 1.72313V7.8176C76.012 8.19904 79.8854 10.132 82.6985 13.2349C85.5115 16.3378 87.0635 20.3879 87.0464 24.5797V32.1999H82.4847C83.0619 30.9655 84.5197 29.5169 83.7758 28.3897H83.7801C83.5108 27.9226 83.0106 27.6311 82.4719 27.6268H74.6868L71.6471 22.2952C71.3778 21.8195 70.8733 21.5238 70.3261 21.5238C69.7789 21.5238 69.2744 21.8195 69.0051 22.2952L65.9655 27.6268H58.1675C57.6246 27.6311 57.1287 27.9226 56.8593 28.3897C56.5857 28.8611 56.5857 29.444 56.8593 29.9154L58.1674 32.1999ZM112.052 23.0582C114.681 17.1609 110.957 11.0968 105.151 8.49104C105.322 6.23668 105.365 3.97804 105.288 1.72368C105.288 0.883663 104.609 0.197951 103.766 0.197951C102.928 0.197951 102.249 0.883685 102.249 1.72368C102.172 3.97804 102.223 6.24096 102.398 8.49104C96.5627 11.1268 92.8817 17.1612 95.4981 23.0582H112.052ZM45.1708 23.0582C47.7872 17.1609 44.0934 11.0968 38.2706 8.49104H38.2663C38.4373 6.23668 38.4844 3.97804 38.4031 1.72368C38.4031 0.883663 37.7234 0.197951 36.8855 0.197951C36.0432 0.197951 35.3635 0.883685 35.3635 1.72368C35.3635 2.08797 35.1968 8.39669 35.5302 8.49104C29.7074 11.0797 25.9837 17.1785 28.613 23.0582H45.1708ZM62.5157 39.8197L60.7971 42.8669H64.2471L62.5285 39.8197H62.5157ZM36.8858 80.9637C34.3677 80.9637 32.3241 83.0081 32.3241 85.5367V99.2514H41.4431V85.5367C41.4431 83.0081 39.4039 80.9637 36.8858 80.9637ZM60.7667 36.7729L59.8861 35.2471H21.6831V38.2943H59.8817L60.7667 36.7729ZM42.9644 32.1999V26.1054H30.8061V32.1999H42.9644ZM71.1936 45.9145H69.4579L70.3258 47.4403L71.1936 45.9145ZM76.3922 36.7729L72.925 30.6784H67.7264L64.2463 36.7729L67.7136 42.8673H72.9122L76.3922 36.7729ZM78.1408 39.8201L76.4051 42.8672H79.8552L78.1366 39.8201H78.1408ZM109.846 32.1999V26.1054H97.6878V32.1999H109.846ZM38.4035 50.7015V55.056H42.7514C42.1956 52.9216 40.5326 51.2587 38.4035 50.7015ZM60.7795 30.6781L62.4982 33.7253L64.2168 30.6781H60.7795ZM69.4582 27.6309H71.1896L70.3218 26.1052L69.4582 27.6309ZM76.4183 30.6781L78.1369 33.7253L79.8555 30.6781H76.4183ZM103.78 80.9637H103.784C101.266 80.9637 99.2222 83.0081 99.2222 85.5367V99.2514H108.341V85.5367C108.341 84.3195 107.862 83.1538 107.003 82.2967C106.144 81.4395 104.981 80.9594 103.767 80.9638L103.78 80.9637ZM109.859 58.1074H105.289V62.6804H109.85L109.859 58.1074ZM105.297 50.7015L105.302 55.056H109.649C109.094 52.9216 107.422 51.2501 105.289 50.7015H105.297ZM102.258 50.7015H102.262C100.133 51.2586 98.4698 52.9215 97.914 55.056H102.249L102.258 50.7015ZM80.7703 35.2467L79.8896 36.7724L80.7703 38.2982L118.969 38.2939V35.2467L80.7703 35.2467ZM102.249 58.1074H97.6872V62.6804H102.249V58.1074ZM91.6079 41.3459L115.93 41.3416V99.2471L111.368 99.2514V85.5367C111.368 81.3281 107.965 77.9165 103.767 77.9165C99.5687 77.9165 96.1656 81.3281 96.1656 85.5367V99.2514H91.6082L91.6079 41.3459ZM94.6475 64.2022C94.6475 64.6051 94.8057 64.9951 95.0921 65.2779C95.3785 65.5651 95.7633 65.7237 96.1652 65.7237H111.368C111.77 65.7237 112.159 65.5651 112.441 65.2779C112.728 64.9951 112.89 64.6051 112.89 64.2022V56.582C112.51 44.4955 95.0287 44.4955 94.6479 56.582L94.6475 64.2022ZM35.3632 58.1077H30.8058V62.6808H35.3675L35.3632 58.1077ZM42.9645 58.1077H38.4028V62.6808H42.9645V58.1077ZM24.7222 41.3418H49.0442V99.2473L44.4868 99.2516V85.537C44.4868 81.3283 41.0837 77.9168 36.8855 77.9168C32.6873 77.9168 29.2842 81.3283 29.2842 85.537V99.2516H24.7225L24.7222 41.3418ZM27.7618 64.1981V64.2024C27.7618 64.6053 27.9243 64.9953 28.2107 65.2782C28.4929 65.5653 28.8819 65.7239 29.2838 65.7239H44.4868C44.8887 65.7239 45.2734 65.5653 45.5599 65.2782C45.8463 64.9953 46.0045 64.6053 46.0045 64.2024V56.5822C45.624 44.4958 28.143 44.4958 27.7622 56.5822L27.7618 64.1981ZM35.3631 50.6974V50.7017C33.2341 51.2589 31.571 52.9217 31.0152 55.0562H35.3631V50.6974ZM83.8101 43.6301C84.0794 44.1015 84.0794 44.6801 83.8101 45.1516C83.5408 45.623 83.0406 45.9101 82.5019 45.9144H74.6869L71.6472 51.246V51.2503C71.3779 51.726 70.8734 52.0218 70.3262 52.0218C69.779 52.0218 69.2745 51.726 69.0052 51.2503L65.9656 45.9187L58.1676 45.9144C57.6247 45.9101 57.1288 45.623 56.8594 45.1516C56.1156 44.0244 57.5734 42.5757 58.1506 41.3414H52.084V99.2469H55.1236V94.6739V94.6782C55.1236 93.8382 55.8077 93.1524 56.6456 93.1524H58.1675V74.8648V74.869C58.1675 68.136 63.6099 62.6762 70.3258 62.6762C77.0417 62.6762 82.4841 68.1364 82.4841 74.869V93.1567H84.006V93.1524C84.4079 93.1524 84.7969 93.3153 85.0791 93.5982C85.3655 93.8853 85.528 94.2753 85.528 94.6782V99.2512H88.5676V41.3457L82.484 41.3414L83.8101 43.6301ZM79.4451 74.8699V93.1576L71.8481 93.1533V65.8611C76.2301 66.6069 79.4408 70.4084 79.4451 74.8699ZM76.2858 78.86C76.0463 78.2985 75.4948 77.9342 74.8878 77.9342C74.2765 77.9342 73.725 78.2985 73.4899 78.86C73.3231 79.2286 73.3231 79.6529 73.4899 80.0172C73.5583 80.2058 73.6651 80.3772 73.8062 80.5229C74.3192 81.0329 75.123 81.1143 75.7258 80.7072C76.3286 80.3043 76.5594 79.5329 76.2858 78.86ZM68.8042 65.8606V93.1528H61.2071V74.8651V74.8694C61.2114 70.4078 64.4221 66.6063 68.8042 65.8606ZM66.7393 78.8599C66.4999 78.2984 65.9484 77.9341 65.3413 77.9341C64.73 77.9341 64.1828 78.2984 63.9434 78.8599C63.7767 79.2285 63.7767 79.6528 63.9434 80.0171C64.0118 80.2057 64.1187 80.3771 64.2598 80.5228C64.7728 81.0328 65.5765 81.1143 66.1793 80.7071C66.7821 80.3042 67.0129 79.5328 66.7393 78.8599ZM58.1675 99.2519H82.4852V96.2048L58.1675 96.2005V99.2519Z" fill="#778592"/>
<path d="M4.07496 123.865V113.959H10.7258V115.658H5.91455V118.063H10.4428V119.761H5.91455V122.167H10.7258V123.865H4.07496ZM12.5598 123.865V113.959H17.1588C18.0078 113.959 18.6918 114.214 19.2106 114.724C19.7295 115.233 19.9889 115.898 19.9889 116.719C19.9889 117.332 19.8238 117.87 19.4936 118.332C19.3238 118.549 19.1587 118.719 18.9984 118.841V118.912C19.2059 119.035 19.3946 119.205 19.5644 119.422C19.9417 119.893 20.1304 120.455 20.1304 121.106C20.1304 121.926 19.871 122.591 19.3521 123.101C18.8333 123.61 18.1493 123.865 17.3003 123.865H12.5598ZM14.3994 118.063H16.9465C17.305 118.063 17.5927 117.955 17.8097 117.738C18.0361 117.511 18.1493 117.219 18.1493 116.86C18.1493 116.464 18.0408 116.153 17.8239 115.926C17.6069 115.7 17.3144 115.587 16.9465 115.587H14.3994V118.063ZM14.3994 122.238H17.088C17.4088 122.238 17.6871 122.115 17.9229 121.87C18.1682 121.624 18.2908 121.323 18.2908 120.964C18.2908 120.606 18.1682 120.304 17.9229 120.058C17.6871 119.813 17.4088 119.69 17.088 119.69H14.3994V122.238ZM21.9015 123.865V113.959H26.3589C27.2929 113.959 28.0428 114.261 28.6089 114.865C29.1843 115.469 29.4721 116.275 29.4721 117.285C29.4721 118.294 29.1843 119.101 28.6089 119.705C28.0428 120.308 27.2929 120.61 26.3589 120.61H23.741V123.865H21.9015ZM23.741 118.841H26.2882C26.6938 118.841 27.0193 118.705 27.2646 118.431C27.5098 118.158 27.6325 117.775 27.6325 117.285C27.6325 116.794 27.5098 116.412 27.2646 116.139C27.0193 115.865 26.6938 115.728 26.2882 115.728H23.741V118.841ZM31.1049 123.865V113.959H37.7557V115.658H32.9445V118.063H37.4727V119.761H32.9445V122.167H37.7557V123.865H31.1049ZM39.5898 123.865V113.959H41.4294V120.823H41.7124L45.25 113.959H47.7264V123.865H45.8868V117.002H45.6038L42.0661 123.865H39.5898ZM41.3586 110.917H42.7029C42.8444 111.483 43.151 111.766 43.6227 111.766C44.0944 111.766 44.401 111.483 44.5425 110.917H45.8868C45.8491 111.559 45.6321 112.063 45.2359 112.431C44.8397 112.79 44.3019 112.969 43.6227 112.969C42.9435 112.969 42.4058 112.79 42.0095 112.431C41.6133 112.063 41.3963 111.559 41.3586 110.917ZM56.7773 120.327H58.6876C58.631 120.591 58.5461 120.865 58.4329 121.148C58.3291 121.431 58.1546 121.752 57.9093 122.11C57.6735 122.459 57.3999 122.771 57.0886 123.044C56.7773 123.318 56.3716 123.549 55.8716 123.738C55.3717 123.917 54.8245 124.006 54.2302 124.006C52.8717 124.006 51.7302 123.525 50.8057 122.563C49.8812 121.601 49.4189 120.384 49.4189 118.912C49.4189 117.441 49.8812 116.224 50.8057 115.261C51.7302 114.299 52.8717 113.818 54.2302 113.818C54.7868 113.818 55.3009 113.903 55.7726 114.073C56.2537 114.233 56.6546 114.441 56.9754 114.695C57.2961 114.95 57.5792 115.247 57.8244 115.587C58.0697 115.917 58.2584 116.233 58.3905 116.535C58.5225 116.837 58.6216 117.134 58.6876 117.426H56.7773C56.5886 116.936 56.282 116.507 55.8575 116.139C55.4424 115.771 54.9 115.587 54.2302 115.587C53.3623 115.587 52.65 115.893 52.0934 116.507C51.5368 117.11 51.2585 117.912 51.2585 118.912C51.2585 119.912 51.5368 120.719 52.0934 121.332C52.65 121.936 53.3623 122.238 54.2302 122.238C54.9094 122.238 55.4566 122.049 55.8716 121.672C56.2962 121.294 56.598 120.846 56.7773 120.327ZM60.2492 123.865V113.959H62.0888V118.417L65.4849 113.959H67.749L63.9991 118.841L68.032 123.865H65.7679L62.0888 119.266V123.865H60.2492ZM68.8169 123.865V113.959H70.6565V120.823H70.9395L74.4772 113.959H76.9536V123.865H75.114V117.002H74.831L71.2933 123.865H68.8169ZM79.0706 123.865V113.959H80.9102V120.823H81.1932L84.7309 113.959H87.2073V123.865H85.3677V117.002H85.0847L81.547 123.865H79.0706ZM80.8395 110.917H82.1838C82.3253 111.483 82.6319 111.766 83.1036 111.766C83.5753 111.766 83.8819 111.483 84.0234 110.917H85.3677C85.3299 111.559 85.113 112.063 84.7167 112.431C84.3205 112.79 83.7828 112.969 83.1036 112.969C82.4243 112.969 81.8866 112.79 81.4904 112.431C81.0942 112.063 80.8772 111.559 80.8395 110.917ZM92.862 123.865V113.959H94.7016V122.096H98.876V113.959H100.716V122.096H101.777V125.846H99.9373V123.865H92.862ZM103.116 123.865V113.959H109.766V115.658H104.955V118.063H109.483V119.761H104.955V122.167H109.766V123.865H103.116ZM111.601 123.865V113.959H113.44V117.922H117.898V113.959H119.737V123.865H117.898V119.761H113.44V123.865H111.601ZM124.048 123.865V115.728H121.076V113.959H128.859V115.728H125.887V123.865H124.048ZM130.201 123.865V113.959H134.658C135.592 113.959 136.342 114.261 136.908 114.865C137.484 115.469 137.772 116.275 137.772 117.285C137.772 118.294 137.484 119.101 136.908 119.705C136.342 120.308 135.592 120.61 134.658 120.61H132.041V123.865H130.201ZM132.041 118.841H134.588C134.993 118.841 135.319 118.705 135.564 118.431C135.809 118.158 135.932 117.775 135.932 117.285C135.932 116.794 135.809 116.412 135.564 116.139C135.319 115.865 134.993 115.728 134.588 115.728H132.041V118.841ZM39.0406 137.327H40.9509C40.8943 137.591 40.8094 137.865 40.6962 138.148C40.5925 138.431 40.4179 138.752 40.1727 139.11C39.9368 139.459 39.6632 139.771 39.3519 140.044C39.0406 140.318 38.635 140.549 38.135 140.738C37.635 140.917 37.0878 141.006 36.4935 141.006C35.135 141.006 33.9935 140.525 33.069 139.563C32.1445 138.601 31.6823 137.384 31.6823 135.912C31.6823 134.441 32.1445 133.224 33.069 132.261C33.9935 131.299 35.135 130.818 36.4935 130.818C37.0501 130.818 37.5642 130.903 38.0359 131.073C38.517 131.233 38.918 131.441 39.2387 131.695C39.5595 131.95 39.8425 132.247 40.0878 132.587C40.333 132.917 40.5217 133.233 40.6538 133.535C40.7859 133.837 40.8849 134.134 40.9509 134.426H39.0406C38.8519 133.936 38.5453 133.507 38.1208 133.139C37.7057 132.771 37.1633 132.587 36.4935 132.587C35.6256 132.587 34.9133 132.893 34.3567 133.507C33.8002 134.11 33.5219 134.912 33.5219 135.912C33.5219 136.912 33.8002 137.719 34.3567 138.332C34.9133 138.936 35.6256 139.238 36.4935 139.238C37.1727 139.238 37.7199 139.049 38.135 138.672C38.5595 138.294 38.8614 137.846 39.0406 137.327ZM42.5125 140.865V130.959H44.3521V135.417L47.7482 130.959H50.0123L46.2624 135.841L50.2954 140.865H48.0312L44.3521 136.266V140.865H42.5125ZM53.0538 138.332C53.6104 138.936 54.3227 139.238 55.1906 139.238C56.0585 139.238 56.7707 138.936 57.3273 138.332C57.8839 137.719 58.1622 136.912 58.1622 135.912C58.1622 134.912 57.8839 134.11 57.3273 133.507C56.7707 132.893 56.0585 132.587 55.1906 132.587C54.3227 132.587 53.6104 132.893 53.0538 133.507C52.4973 134.11 52.219 134.912 52.219 135.912C52.219 136.912 52.4973 137.719 53.0538 138.332ZM51.7661 132.261C52.6906 131.299 53.8321 130.818 55.1906 130.818C56.5491 130.818 57.6905 131.299 58.615 132.261C59.5396 133.224 60.0018 134.441 60.0018 135.912C60.0018 137.384 59.5396 138.601 58.615 139.563C57.6905 140.525 56.5491 141.006 55.1906 141.006C53.8321 141.006 52.6906 140.525 51.7661 139.563C50.8416 138.601 50.3794 137.384 50.3794 135.912C50.3794 134.441 50.8416 133.224 51.7661 132.261ZM60.4263 140.936V139.167H60.8509C61.4829 139.167 61.8367 138.742 61.9122 137.893L62.4782 130.959H69.129V140.865H67.2894V132.728H64.1763L63.7517 138.318C63.6102 140.063 62.714 140.936 61.0631 140.936H60.4263ZM71.256 140.865V130.959H73.0956V135.417L76.4917 130.959H78.7558L75.0059 135.841L79.0389 140.865H76.7748L73.0956 136.266V140.865H71.256ZM81.7974 138.332C82.3539 138.936 83.0662 139.238 83.9341 139.238C84.802 139.238 85.5143 138.936 86.0708 138.332C86.6274 137.719 86.9057 136.912 86.9057 135.912C86.9057 134.912 86.6274 134.11 86.0708 133.507C85.5143 132.893 84.802 132.587 83.9341 132.587C83.0662 132.587 82.3539 132.893 81.7974 133.507C81.2408 134.11 80.9625 134.912 80.9625 135.912C80.9625 136.912 81.2408 137.719 81.7974 138.332ZM80.5096 132.261C81.4342 131.299 82.5756 130.818 83.9341 130.818C85.2926 130.818 86.434 131.299 87.3586 132.261C88.2831 133.224 88.7453 134.441 88.7453 135.912C88.7453 137.384 88.2831 138.601 87.3586 139.563C86.434 140.525 85.2926 141.006 83.9341 141.006C82.5756 141.006 81.4342 140.525 80.5096 139.563C79.5851 138.601 79.1229 137.384 79.1229 135.912C79.1229 134.441 79.5851 133.224 80.5096 132.261ZM90.4368 140.865V130.959H95.0357C95.8848 130.959 96.5687 131.214 97.0876 131.724C97.6064 132.233 97.8659 132.898 97.8659 133.719C97.8659 134.332 97.7008 134.87 97.3706 135.332C97.2008 135.549 97.0357 135.719 96.8753 135.841V135.912C97.0829 136.035 97.2715 136.205 97.4413 136.422C97.8187 136.893 98.0074 137.455 98.0074 138.106C98.0074 138.926 97.7479 139.591 97.2291 140.101C96.7102 140.61 96.0263 140.865 95.1772 140.865H90.4368ZM92.2763 135.063H94.8235C95.1819 135.063 95.4697 134.955 95.6867 134.738C95.9131 134.511 96.0263 134.219 96.0263 133.86C96.0263 133.464 95.9178 133.153 95.7008 132.926C95.4838 132.7 95.1914 132.587 94.8235 132.587H92.2763V135.063ZM92.2763 139.238H94.965C95.2857 139.238 95.564 139.115 95.7999 138.87C96.0451 138.624 96.1678 138.323 96.1678 137.964C96.1678 137.606 96.0451 137.304 95.7999 137.058C95.564 136.813 95.2857 136.69 94.965 136.69H92.2763V139.238ZM102.028 138.332C102.585 138.936 103.297 139.238 104.165 139.238C105.033 139.238 105.745 138.936 106.302 138.332C106.858 137.719 107.137 136.912 107.137 135.912C107.137 134.912 106.858 134.11 106.302 133.507C105.745 132.893 105.033 132.587 104.165 132.587C103.297 132.587 102.585 132.893 102.028 133.507C101.472 134.11 101.193 134.912 101.193 135.912C101.193 136.912 101.472 137.719 102.028 138.332ZM100.741 132.261C101.665 131.299 102.807 130.818 104.165 130.818C105.524 130.818 106.665 131.299 107.59 132.261C108.514 133.224 108.976 134.441 108.976 135.912C108.976 137.384 108.514 138.601 107.59 139.563C106.665 140.525 105.524 141.006 104.165 141.006C102.807 141.006 101.665 140.525 100.741 139.563C99.8161 138.601 99.3539 137.384 99.3539 135.912C99.3539 134.441 99.8161 133.224 100.741 132.261Z" fill="#778592"/>
</svg>
