<svg width="176" height="180" viewBox="0 0 176 180" fill="none" xmlns="http://www.w3.org/2000/svg">
<path d="M72.5968 40.2576H66.8584V30.6717C66.8584 25.4151 68.8214 20.3472 72.3601 16.4599C75.8988 12.5781 80.7552 10.1627 85.9772 9.68284V1.91925C85.9772 0.862547 86.8377 -4.57764e-05 87.8917 -4.57764e-05C88.9458 -4.57764e-05 89.8062 0.862575 89.8062 1.91925V9.58581C95.0444 10.0656 99.917 12.4972 103.456 16.4005C106.994 20.3038 108.947 25.3987 108.925 30.6717V40.2576H103.187C103.913 38.7049 105.747 36.8826 104.811 35.4646H104.816C104.478 34.8769 103.848 34.5103 103.171 34.5049H93.3773L89.5536 27.798C89.2148 27.1996 88.5802 26.8276 87.8919 26.8276C87.2035 26.8276 86.5689 27.1996 86.2301 27.798L82.4064 34.5049H72.5969C71.9139 34.5103 71.2901 34.8769 70.9513 35.4646C70.6071 36.0576 70.6071 36.7909 70.9513 37.3839L72.5968 40.2576ZM140.381 28.7578C143.688 21.3393 139.004 13.7109 131.701 10.433C131.916 7.59709 131.969 4.75582 131.873 1.91994C131.873 0.863238 131.018 0.000643941 129.958 0.000643941C128.904 0.000643941 128.049 0.863265 128.049 1.91994C127.952 4.75582 128.017 7.60247 128.237 10.433C120.896 13.7486 116.266 21.3397 119.557 28.7578H140.381ZM56.2476 28.7578C59.5389 21.3393 54.8923 13.7109 47.5675 10.433H47.5621C47.7772 7.59709 47.8364 4.75582 47.7342 1.91994C47.7342 0.863238 46.8791 0.000643941 45.825 0.000643941C44.7656 0.000643941 43.9105 0.863265 43.9105 1.91994C43.9105 2.37821 43.7008 10.3143 44.1202 10.433C36.7954 13.6894 32.1111 21.3613 35.4186 28.7578H56.2476ZM78.0667 49.843L75.9047 53.6762H80.2447L78.0828 49.843H78.0667ZM45.8255 101.6C42.6578 101.6 40.0871 104.172 40.0871 107.353V124.605H51.5583V107.353C51.5583 104.172 48.9931 101.6 45.8255 101.6ZM75.8666 46.0102L74.7587 44.0909H26.7012V47.9241H74.7532L75.8666 46.0102ZM53.472 40.2576V32.591H38.1775V40.2576H53.472ZM88.9831 57.51H86.7997L87.8914 59.4293L88.9831 57.51ZM95.5227 46.0102L91.1611 38.3437H84.6215L80.2438 46.0102L84.6054 53.6768H91.145L95.5227 46.0102ZM97.7224 49.8434L95.539 53.6766H99.879L97.717 49.8434H97.7224ZM137.606 40.2576V32.591H122.312V40.2576H137.606ZM47.7346 63.5318V69.0095H53.2041C52.505 66.3246 50.413 64.2328 47.7346 63.5318ZM75.8827 38.3432L78.0446 42.1765L80.2066 38.3432H75.8827ZM86.8001 34.51H88.9781L87.8864 32.5907L86.8001 34.51ZM95.5555 38.3432L97.7174 42.1765L99.8794 38.3432H95.5555ZM129.975 101.6H129.98C126.812 101.6 124.242 104.172 124.242 107.353V124.605H135.713V107.353C135.713 105.822 135.111 104.355 134.03 103.277C132.949 102.199 131.486 101.595 129.959 101.6L129.975 101.6ZM137.622 72.8481H131.873V78.6007H137.612L137.622 72.8481ZM131.884 63.5318L131.889 69.0095H137.359C136.66 66.3246 134.557 64.2219 131.873 63.5318H131.884ZM128.06 63.5318H128.066C125.387 64.2326 123.295 66.3245 122.596 69.0095H128.049L128.06 63.5318ZM101.03 44.0904L99.9222 46.0097L101.03 47.929L149.082 47.9236V44.0904L101.03 44.0904ZM128.049 72.8481H122.311V78.6007H128.049V72.8481ZM114.663 51.7629L145.259 51.7575V124.6L139.521 124.605V107.353C139.521 102.059 135.24 97.7671 129.959 97.7671C124.678 97.7671 120.397 102.059 120.397 107.353V124.605H114.664L114.663 51.7629ZM118.487 80.515C118.487 81.0218 118.686 81.5125 119.046 81.8683C119.407 82.2295 119.891 82.429 120.396 82.429H139.521C140.026 82.429 140.516 82.2295 140.871 81.8683C141.231 81.5125 141.435 81.0218 141.435 80.515V70.9292C140.957 55.725 118.967 55.725 118.487 70.9292L118.487 80.515ZM43.9101 72.8485H38.1771V78.6011H43.9155L43.9101 72.8485ZM53.4722 72.8485H47.7338V78.6011H53.4722V72.8485ZM30.5242 51.7578H61.1201V124.6L55.3871 124.606V107.353C55.3871 102.059 51.1062 97.7673 45.825 97.7673C40.5439 97.7673 36.263 102.059 36.263 107.353V124.606H30.5246L30.5242 51.7578ZM34.3479 80.5099V80.5153C34.3479 81.0221 34.5522 81.5127 34.9126 81.8686C35.2675 82.2298 35.7569 82.4293 36.2625 82.4293H55.3872C55.8927 82.4293 56.3767 82.2298 56.7371 81.8686C57.0974 81.5127 57.2964 81.0221 57.2964 80.5153V70.9295C56.8177 55.7253 34.8275 55.7253 34.3484 70.9295L34.3479 80.5099ZM43.91 63.5267V63.5321C41.2317 64.2329 39.1397 66.3247 38.4405 69.0098H43.91V63.5267ZM104.854 54.6363C105.193 55.2293 105.193 55.9572 104.854 56.5502C104.515 57.1433 103.886 57.5045 103.208 57.5099H93.3774L89.5537 64.2168V64.2222C89.2149 64.8206 88.5803 65.1926 87.892 65.1926C87.2036 65.1926 86.569 64.8206 86.2302 64.2222L82.4065 57.5153L72.597 57.5099C71.914 57.5045 71.2902 57.1433 70.9514 56.5502C70.0156 55.1323 71.8495 53.3099 72.5756 51.7572H64.9441V124.6H68.7678V118.847V118.852C68.7678 117.796 69.6283 116.933 70.6824 116.933H72.5969V93.9281V93.9334C72.5969 85.4636 79.4432 78.5954 87.8914 78.5954C96.3397 78.5954 103.186 85.464 103.186 93.9334V116.939H105.101V116.933C105.606 116.933 106.095 117.138 106.45 117.494C106.811 117.855 107.015 118.346 107.015 118.852V124.605H110.839V51.7626L103.186 51.7572L104.854 54.6363ZM99.3631 93.9345V116.94L89.8064 116.934V82.6019C95.3188 83.54 99.3577 88.3221 99.3631 93.9345ZM95.3888 98.9539C95.0876 98.2476 94.3939 97.7893 93.6302 97.7893C92.8612 97.7893 92.1674 98.2476 91.8717 98.9539C91.6619 99.4175 91.6619 99.9513 91.8717 100.41C91.9577 100.647 92.0922 100.862 92.2697 101.046C92.915 101.687 93.926 101.79 94.6844 101.278C95.4427 100.771 95.733 99.8003 95.3888 98.9539ZM85.9773 82.6012V116.934H76.4206V93.9285V93.9338C76.426 88.3214 80.4649 83.5393 85.9773 82.6012ZM83.3798 98.9537C83.0786 98.2475 82.3848 97.7892 81.6212 97.7892C80.8522 97.7892 80.1638 98.2475 79.8627 98.9537C79.6529 99.4174 79.6529 99.9511 79.8627 100.409C79.9487 100.647 80.0832 100.862 80.2606 101.046C80.906 101.687 81.917 101.79 82.6754 101.277C83.4337 100.771 83.724 99.8002 83.3798 98.9537ZM72.5969 124.606H103.187V120.773L72.5969 120.767V124.606Z" fill="#25B3BC"/>
<path d="M4.55105 154.957V142.496H12.9175V144.632H6.86516V147.658H12.5614V149.794H6.86516V152.821H12.9175V154.957H4.55105ZM15.2246 154.957V142.496H21.0099C22.0779 142.496 22.9383 142.816 23.591 143.457C24.2437 144.098 24.5701 144.935 24.5701 145.967C24.5701 146.739 24.3624 147.415 23.947 147.997C23.7334 148.269 23.5257 148.483 23.324 148.637V148.726C23.5851 148.881 23.8224 149.094 24.036 149.367C24.5107 149.961 24.7481 150.667 24.7481 151.485C24.7481 152.518 24.4217 153.355 23.769 153.995C23.1163 154.636 22.256 154.957 21.1879 154.957H15.2246ZM17.5387 147.658H20.7429C21.1938 147.658 21.5558 147.522 21.8287 147.249C22.1135 146.964 22.256 146.596 22.256 146.145C22.256 145.647 22.1195 145.255 21.8465 144.97C21.5736 144.686 21.2057 144.543 20.7429 144.543H17.5387V147.658ZM17.5387 152.91H20.9209C21.3244 152.91 21.6745 152.755 21.9711 152.447C22.2797 152.138 22.434 151.758 22.434 151.307C22.434 150.857 22.2797 150.477 21.9711 150.168C21.6745 149.86 21.3244 149.705 20.9209 149.705H17.5387V152.91ZM26.976 154.957V142.496H32.5832C33.7581 142.496 34.7015 142.876 35.4136 143.635C36.1375 144.395 36.4994 145.409 36.4994 146.679C36.4994 147.949 36.1375 148.964 35.4136 149.723C34.7015 150.483 33.7581 150.862 32.5832 150.862H29.2901V154.957H26.976ZM29.2901 148.637H32.4942C33.0045 148.637 33.4139 148.465 33.7225 148.121C34.031 147.777 34.1853 147.296 34.1853 146.679C34.1853 146.062 34.031 145.582 33.7225 145.237C33.4139 144.893 33.0045 144.721 32.4942 144.721H29.2901V148.637ZM38.5535 154.957V142.496H46.9199V144.632H40.8676V147.658H46.5639V149.794H40.8676V152.821H46.9199V154.957H38.5535ZM49.227 154.957V142.496H51.5412V151.129H51.8972L56.3474 142.496H59.4625V154.957H57.1484V146.323H56.7924L52.3422 154.957H49.227ZM51.4522 138.669H53.1432C53.3212 139.381 53.7069 139.737 54.3003 139.737C54.8937 139.737 55.2793 139.381 55.4573 138.669H57.1484C57.101 139.476 56.828 140.111 56.3296 140.574C55.8312 141.025 55.1547 141.25 54.3003 141.25C53.4458 141.25 52.7694 141.025 52.271 140.574C51.7726 140.111 51.4996 139.476 51.4522 138.669ZM70.8481 150.506H73.2513C73.1801 150.839 73.0733 151.183 72.9308 151.539C72.8003 151.895 72.5808 152.298 72.2722 152.749C71.9755 153.188 71.6314 153.58 71.2398 153.924C70.8481 154.268 70.3379 154.559 69.7089 154.796C69.0799 155.022 68.3916 155.135 67.644 155.135C65.9351 155.135 64.4992 154.529 63.3362 153.319C62.1732 152.109 61.5917 150.578 61.5917 148.726C61.5917 146.875 62.1732 145.344 63.3362 144.134C64.4992 142.923 65.9351 142.318 67.644 142.318C68.3442 142.318 68.9909 142.425 69.5843 142.638C70.1895 142.84 70.6939 143.101 71.0974 143.422C71.5008 143.742 71.8569 144.116 72.1654 144.543C72.474 144.959 72.7113 145.356 72.8774 145.736C73.0436 146.116 73.1682 146.489 73.2513 146.857H70.8481C70.6108 146.24 70.2251 145.7 69.6911 145.237C69.1689 144.775 68.4866 144.543 67.644 144.543C66.5522 144.543 65.6562 144.929 64.9561 145.7C64.2559 146.46 63.9058 147.468 63.9058 148.726C63.9058 149.984 64.2559 150.999 64.9561 151.77C65.6562 152.53 66.5522 152.91 67.644 152.91C68.4984 152.91 69.1867 152.672 69.7089 152.198C70.2429 151.723 70.6227 151.159 70.8481 150.506ZM75.2156 154.957V142.496H77.5297V148.103L81.8019 142.496H84.6501L79.9328 148.637L85.0061 154.957H82.1579L77.5297 149.171V154.957H75.2156ZM85.9935 154.957V142.496H88.3076V151.129H88.6636L93.1138 142.496H96.229V154.957H93.9149V146.323H93.5588L89.1086 154.957H85.9935ZM98.8922 154.957V142.496H101.206V151.129H101.562L106.013 142.496H109.128V154.957H106.814V146.323H106.458L102.007 154.957H98.8922ZM101.117 138.669H102.808C102.986 139.381 103.372 139.737 103.965 139.737C104.559 139.737 104.944 139.381 105.122 138.669H106.814C106.766 139.476 106.493 140.111 105.995 140.574C105.496 141.025 104.82 141.25 103.965 141.25C103.111 141.25 102.435 141.025 101.936 140.574C101.438 140.111 101.165 139.476 101.117 138.669ZM116.241 154.957V142.496H118.555V152.732H123.806V142.496H126.121V152.732H127.456V157.449H125.141V154.957H116.241ZM129.14 154.957V142.496H137.506V144.632H131.454V147.658H137.15V149.794H131.454V152.821H137.506V154.957H129.14ZM139.813 154.957V142.496H142.127V147.48H147.735V142.496H150.049V154.957H147.735V149.794H142.127V154.957H139.813ZM155.471 154.957V144.721H151.733V142.496H161.523V144.721H157.785V154.957H155.471ZM163.212 154.957V142.496H168.819C169.994 142.496 170.937 142.876 171.649 143.635C172.373 144.395 172.735 145.409 172.735 146.679C172.735 147.949 172.373 148.964 171.649 149.723C170.937 150.483 169.994 150.862 168.819 150.862H165.526V154.957H163.212ZM165.526 148.637H168.73C169.24 148.637 169.65 148.465 169.958 148.121C170.267 147.777 170.421 147.296 170.421 146.679C170.421 146.062 170.267 145.582 169.958 145.237C169.65 144.893 169.24 144.721 168.73 144.721H165.526V148.637ZM48.5362 171.506H50.9393C50.8681 171.839 50.7613 172.183 50.6189 172.539C50.4884 172.895 50.2688 173.298 49.9603 173.749C49.6636 174.188 49.3195 174.58 48.9278 174.924C48.5362 175.268 48.0259 175.559 47.397 175.796C46.768 176.022 46.0797 176.135 45.3321 176.135C43.6232 176.135 42.1872 175.529 41.0243 174.319C39.8613 173.109 39.2798 171.578 39.2798 169.726C39.2798 167.875 39.8613 166.344 41.0243 165.134C42.1872 163.923 43.6232 163.318 45.3321 163.318C46.0322 163.318 46.679 163.425 47.2724 163.638C47.8776 163.84 48.3819 164.101 48.7854 164.422C49.1889 164.742 49.5449 165.116 49.8535 165.543C50.162 165.959 50.3994 166.356 50.5655 166.736C50.7317 167.116 50.8563 167.489 50.9393 167.857H48.5362C48.2989 167.24 47.9132 166.7 47.3792 166.237C46.857 165.775 46.1746 165.543 45.3321 165.543C44.2403 165.543 43.3443 165.929 42.6441 166.7C41.944 167.46 41.5939 168.468 41.5939 169.726C41.5939 170.984 41.944 171.999 42.6441 172.77C43.3443 173.53 44.2403 173.91 45.3321 173.91C46.1865 173.91 46.8748 173.672 47.397 173.198C47.931 172.723 48.3107 172.159 48.5362 171.506ZM52.9037 175.957V163.496H55.2178V169.103L59.49 163.496H62.3381L57.6209 169.637L62.6942 175.957H59.846L55.2178 170.171V175.957H52.9037ZM66.1642 172.77C66.8644 173.53 67.7604 173.91 68.8522 173.91C69.9439 173.91 70.8399 173.53 71.5401 172.77C72.2402 171.999 72.5903 170.984 72.5903 169.726C72.5903 168.468 72.2402 167.46 71.5401 166.7C70.8399 165.929 69.9439 165.543 68.8522 165.543C67.7604 165.543 66.8644 165.929 66.1642 166.7C65.4641 167.46 65.114 168.468 65.114 169.726C65.114 170.984 65.4641 171.999 66.1642 172.77ZM64.5443 165.134C65.7073 163.923 67.1433 163.318 68.8522 163.318C70.561 163.318 71.997 163.923 73.16 165.134C74.323 166.344 74.9044 167.875 74.9044 169.726C74.9044 171.578 74.323 173.109 73.16 174.319C71.997 175.529 70.561 176.135 68.8522 176.135C67.1433 176.135 65.7073 175.529 64.5443 174.319C63.3814 173.109 62.7999 171.578 62.7999 169.726C62.7999 167.875 63.3814 166.344 64.5443 165.134ZM75.4385 176.046V173.821H75.9725C76.7676 173.821 77.2126 173.287 77.3076 172.218L78.0196 163.496H86.386V175.957H84.0719V165.721H80.1557L79.6217 172.753C79.4437 174.948 78.3163 176.046 76.2395 176.046H75.4385ZM89.0617 175.957V163.496H91.3758V169.103L95.648 163.496H98.4962L93.7789 169.637L98.8522 175.957H96.004L91.3758 170.171V175.957H89.0617ZM102.322 172.77C103.022 173.53 103.918 173.91 105.01 173.91C106.102 173.91 106.998 173.53 107.698 172.77C108.398 171.999 108.748 170.984 108.748 169.726C108.748 168.468 108.398 167.46 107.698 166.7C106.998 165.929 106.102 165.543 105.01 165.543C103.918 165.543 103.022 165.929 102.322 166.7C101.622 167.46 101.272 168.468 101.272 169.726C101.272 170.984 101.622 171.999 102.322 172.77ZM100.702 165.134C101.865 163.923 103.301 163.318 105.01 163.318C106.719 163.318 108.155 163.923 109.318 165.134C110.481 166.344 111.062 167.875 111.062 169.726C111.062 171.578 110.481 173.109 109.318 174.319C108.155 175.529 106.719 176.135 105.01 176.135C103.301 176.135 101.865 175.529 100.702 174.319C99.5394 173.109 98.9579 171.578 98.9579 169.726C98.9579 167.875 99.5394 166.344 100.702 165.134ZM113.19 175.957V163.496H118.975C120.044 163.496 120.904 163.816 121.557 164.457C122.209 165.098 122.536 165.935 122.536 166.967C122.536 167.739 122.328 168.415 121.913 168.997C121.699 169.269 121.491 169.483 121.29 169.637V169.726C121.551 169.881 121.788 170.094 122.002 170.367C122.476 170.961 122.714 171.667 122.714 172.485C122.714 173.518 122.387 174.355 121.735 174.995C121.082 175.636 120.222 175.957 119.154 175.957H113.19ZM115.504 168.658H118.708C119.159 168.658 119.521 168.522 119.794 168.249C120.079 167.964 120.222 167.596 120.222 167.145C120.222 166.647 120.085 166.255 119.812 165.97C119.539 165.686 119.171 165.543 118.708 165.543H115.504V168.658ZM115.504 173.91H118.886C119.29 173.91 119.64 173.755 119.937 173.447C120.245 173.138 120.4 172.758 120.4 172.307C120.4 171.857 120.245 171.477 119.937 171.168C119.64 170.86 119.29 170.705 118.886 170.705H115.504V173.91ZM127.772 172.77C128.472 173.53 129.368 173.91 130.46 173.91C131.552 173.91 132.448 173.53 133.148 172.77C133.848 171.999 134.198 170.984 134.198 169.726C134.198 168.468 133.848 167.46 133.148 166.7C132.448 165.929 131.552 165.543 130.46 165.543C129.368 165.543 128.472 165.929 127.772 166.7C127.072 167.46 126.722 168.468 126.722 169.726C126.722 170.984 127.072 171.999 127.772 172.77ZM126.152 165.134C127.315 163.923 128.751 163.318 130.46 163.318C132.169 163.318 133.605 163.923 134.768 165.134C135.931 166.344 136.512 167.875 136.512 169.726C136.512 171.578 135.931 173.109 134.768 174.319C133.605 175.529 132.169 176.135 130.46 176.135C128.751 176.135 127.315 175.529 126.152 174.319C124.989 173.109 124.408 171.578 124.408 169.726C124.408 167.875 124.989 166.344 126.152 165.134Z" fill="#25B3BC"/>
</svg>
